<?xml version="1.0" encoding="UTF-8"?> <!-- Generator: Adobe Illustrator 17.1.0, SVG Export Plug-In . SVG Version: 6.00 Build 0) --> <svg xmlns="http://www.w3.org/2000/svg" xmlns:xlink="http://www.w3.org/1999/xlink" id="Слой_2" x="0px" y="0px" viewBox="0 0 100 100" xml:space="preserve"> <path fill="#D2BA7C" d="M9.9,11.5v11.4c0,0.5,0.4,1,1,1h0c0.5,0,1-0.4,1-1V12.5h11.4c0.5,0,1-0.4,1-1v0c0-0.5-0.4-1-1-1H10.9 C10.4,10.5,9.9,11,9.9,11.5z"></path> <path fill="#D2BA7C" d="M10.9,53.9L10.9,53.9c-0.6,0-1,0.4-1,1v13c0,0.5,0.4,1,1,1h12.4c0.5,0,1-0.4,1-1v0c0-0.5-0.4-1-1-1H11.9v-12 C11.9,54.4,11.5,53.9,10.9,53.9z"></path> <path fill="#D2BA7C" d="M77.4,12.5h10.8v10.4c0,0.5,0.4,1,1,1h0c0.5,0,1-0.4,1-1V11.5c0-0.5-0.4-1-1-1H77.4c-0.5,0-1,0.4-1,1v0 C76.4,12,76.8,12.5,77.4,12.5z"></path> <path fill="#D2BA7C" d="M88.1,66.9H77.4c-0.5,0-1,0.4-1,1v0c0,0.5,0.4,1,1,1h11.7c0.5,0,1-0.4,1-1v-13c0-0.5-0.4-1-1-1h0 c-0.5,0-1,0.4-1,1V66.9z"></path> <path fill="#D2BA7C" d="M98,4.1H76.4h-2H26.2h-2H2c-0.5,0-1,0.4-1,1v18.8v2V52v2v20.4c0,0.5,0.4,1,1,1h22.3h2h7.4L27,88.4 c-0.2,0.4-0.1,0.8,0.2,1.1c0.3,0.3,0.7,0.4,1.1,0.2l7.6-3.1l1.3,8.5c0.1,0.4,0.4,0.7,0.8,0.8c0.1,0,0.1,0,0.2,0 c0.3,0,0.7-0.2,0.9-0.5l9.8-17.5c0.2,0,0.4,0,0.6,0c0.6,0,1.3,0,1.9-0.1L61,95.4c0.2,0.3,0.5,0.5,0.9,0.5c0.1,0,0.1,0,0.2,0 c0.4-0.1,0.7-0.4,0.8-0.8l1.3-8.5l7.6,3.1c0.4,0.2,0.8,0.1,1.1-0.2c0.3-0.3,0.3-0.7,0.2-1.1l-6.6-13.1h8.1h2H98c0.5,0,1-0.4,1-1V5.1 C99,4.5,98.6,4.1,98,4.1z M38.7,92l-1.1-6.9c0-0.3-0.2-0.6-0.5-0.7c-0.3-0.1-0.6-0.2-0.9-0.1L29.9,87l5.9-11.7l1-2l0.4-0.7 c0.2,0.2,0.5,0.5,0.7,0.7c0.8,0.7,1.6,1.4,2.5,2c1.9,1.2,4,2,6.2,2.4L38.7,92z M50.2,75.9c-0.1,0-0.2,0-0.3,0c-0.2,0-0.3,0-0.5,0 c-0.6,0-1.1,0-1.7-0.1c-0.9-0.1-1.8-0.3-2.7-0.6c-1.4-0.4-2.8-1.1-4-2c-1.1-0.7-2-1.6-2.9-2.6c-0.5-0.6-0.9-1.1-1.3-1.8 c0,0-0.1-0.1-0.1-0.1c-0.4-0.6-0.7-1.3-1-2c-0.7-1.8-1.2-3.7-1.2-5.7c0-2.6,0.7-5.1,1.9-7.2c0.4-0.7,0.8-1.3,1.3-2 c2.7-3.4,6.9-5.6,11.6-5.6c4.7,0,8.9,2.2,11.6,5.6c0.5,0.6,0.9,1.3,1.3,2c1.2,2.1,1.9,4.6,1.9,7.2c0,2-0.4,4-1.2,5.7 c-0.1,0.3-0.3,0.6-0.4,0.9c-0.2,0.4-0.4,0.7-0.6,1c-0.2,0.3-0.4,0.6-0.6,0.9c-1,1.4-2.2,2.6-3.7,3.6c-1.2,0.8-2.6,1.5-4,2 c-0.5,0.1-0.9,0.3-1.4,0.4C51.6,75.8,50.9,75.9,50.2,75.9z M70.1,87l-6.3-2.6c-0.3-0.1-0.6-0.1-0.9,0.1c-0.3,0.1-0.4,0.4-0.5,0.7 L61.3,92l-8.1-14.6c1.8-0.4,3.5-1.2,5-2.1c0.9-0.6,1.7-1.2,2.5-2c0.6-0.5,1.1-1.1,1.6-1.7l0.8,1.7l1,2L70.1,87z M97,73.3H76.4h-2h-9 l-1.8-3.5c0.2-0.3,0.4-0.6,0.6-1c0.3-0.6,0.6-1.3,0.9-2c0.7-1.8,1-3.7,1-5.7c0-2.6-0.6-5-1.7-7.2c-0.3-0.7-0.7-1.3-1.1-2 c-3-4.5-8.1-7.6-14-7.6s-11,3-14,7.6c-0.4,0.6-0.8,1.3-1.1,2c-1.1,2.2-1.7,4.6-1.7,7.2c0,2,0.4,3.9,1,5.7c0.2,0.7,0.5,1.3,0.9,2 c0.4,0.7,0.8,1.4,1.3,2.1l-1.2,2.4h-8.4h-2H3V53.9v-2V25.8v-2V6h21.3h2h48.2h2H97V73.3z"></path> <path fill="#D2BA7C" d="M67.5,35.2h-35c-0.5,0-1,0.4-1,1c0,0.5,0.4,1,1,1h35c0.5,0,1-0.4,1-1C68.5,35.7,68,35.2,67.5,35.2z"></path> <path fill="#D2BA7C" d="M71.9,26.1H28.1c-0.5,0-1,0.4-1,1c0,0.5,0.4,1,1,1h43.7c0.5,0,1-0.4,1-1C72.8,26.6,72.4,26.1,71.9,26.1z"></path> <path fill="#D2BA7C" d="M57.2,66.9c1.2-1.6,1.9-3.6,1.9-5.7c0-2.9-1.3-5.5-3.3-7.2c-1-0.9-2.1-1.5-3.3-2c-1-0.3-2-0.5-3.1-0.5 c-1.1,0-2.1,0.2-3.1,0.5c-1.2,0.4-2.4,1.1-3.3,2c-2,1.8-3.3,4.4-3.3,7.2c0,2.1,0.7,4.1,1.9,5.7c0.5,0.7,1.2,1.4,1.9,2 c1.6,1.3,3.7,2,5.9,2c2.2,0,4.3-0.8,5.9-2C56,68.3,56.6,67.6,57.2,66.9z M49.3,68.9c-0.3,0-0.7,0-1-0.1c-1.6-0.2-3.1-0.9-4.2-2 c-1.6-1.4-2.6-3.5-2.6-5.7c0-3.3,2.1-6.1,5-7.2c0.9-0.3,1.8-0.5,2.8-0.5c1,0,1.9,0.2,2.8,0.5c2.9,1.1,5,3.9,5,7.2 c0,2.3-1,4.3-2.6,5.7c-1.2,1-2.6,1.7-4.2,2C50,68.9,49.7,68.9,49.3,68.9z"></path> </svg> 