<?xml version="1.0" encoding="UTF-8"?> <!-- Generator: Adobe Illustrator 17.1.0, SVG Export Plug-In . SVG Version: 6.00 Build 0) --> <svg xmlns="http://www.w3.org/2000/svg" xmlns:xlink="http://www.w3.org/1999/xlink" id="Слой_3" x="0px" y="0px" viewBox="0 0 100 100" xml:space="preserve"> <g> <path fill="#D2BA7C" d="M82.4,40.5c3.2-3.3,3.2-8.6,0-11.9l-1.1-1.1c-1.4-1.5-2.1-3.5-1.8-5.5l0.2-1.6c0.7-4.6-2.4-8.8-7-9.6 l-1.6-0.3c-2-0.4-3.8-1.6-4.7-3.4l-0.7-1.4C64.2,2.7,61.3,1,58.1,1c-1.3,0-2.6,0.3-3.8,0.9l-1.4,0.7c-1.8,0.9-4,0.9-5.8,0l-1.4-0.7 C44.5,1.3,43.2,1,41.9,1c-3.2,0-6.1,1.7-7.6,4.6L33.6,7c-1,1.8-2.7,3.1-4.7,3.4l-1.6,0.3c-4.6,0.8-7.7,5-7,9.6l0.2,1.6 c0.3,2-0.4,4.1-1.8,5.5l-1.1,1.1c-3.2,3.3-3.2,8.6,0,11.9l1.1,1.1c1.4,1.5,2.1,3.5,1.8,5.5l-0.2,1.6c-0.7,4.6,2.4,8.8,7,9.6 l1.6,0.3c0.5,0.1,0.9,0.2,1.3,0.4L17.5,84.8c-0.2,0.3-0.1,0.7,0.1,1c0.2,0.3,0.5,0.4,0.9,0.4l12.6-1l6.6,9.5 c0.2,0.3,0.5,0.4,0.8,0.4c0,0,0.1,0,0.1,0c0.3,0,0.6-0.2,0.8-0.6l9.9-21.4l11.9,25.3c0.1,0.3,0.5,0.5,0.8,0.5c0,0,0,0,0.1,0 c0.3,0,0.6-0.2,0.8-0.4l7.1-10.4l11.5,0.7c0.3,0,0.7-0.1,0.9-0.4c0.2-0.3,0.2-0.7,0.1-1L68.4,59.8c0.8-0.6,1.7-1,2.8-1.2l1.6-0.3 c4.6-0.8,7.6-5,7-9.6l-0.2-1.6c-0.3-2,0.4-4.1,1.8-5.5L82.4,40.5z M38.2,92.2l-6-8.5c-0.2-0.3-0.5-0.4-0.9-0.4L20,84.1L31.9,60 c0.7,0.6,1.3,1.2,1.7,2.1l0.7,1.4c1.5,2.8,4.4,4.6,7.6,4.6c1.3,0,2.6-0.3,3.8-0.9l1.4-0.7c1-0.5,2.2-0.7,3.4-0.6l-1.4,3l-1,2.1 L38.2,92.2z M79.8,86.8l-10.4-0.6c-0.3,0-0.7,0.1-0.9,0.4l-6.4,9.5L50.2,70.8l2.2-4.6c0.2,0.1,0.4,0.1,0.5,0.2l1.4,0.7 c1.2,0.6,2.4,0.9,3.8,0.9c3.2,0,6.1-1.7,7.6-4.6l0.7-1.4c0.2-0.3,0.3-0.6,0.5-0.8L79.8,86.8z M79.9,40.3c-1.8,1.9-2.7,4.5-2.3,7.2 l0.2,1.6c0.5,3.6-1.9,6.9-5.4,7.5l-1.6,0.3c-1.2,0.2-2.3,0.7-3.3,1.3c-0.5,0.4-1.1,0.8-1.5,1.3c-0.5,0.5-0.9,1.1-1.3,1.8L64,62.5 c-1.2,2.2-3.4,3.5-5.9,3.5c-1,0-2-0.2-2.9-0.7l-1.4-0.7c-0.2-0.1-0.4-0.2-0.6-0.2c-0.6-0.2-1.2-0.4-1.9-0.5 c-0.4-0.1-0.9-0.1-1.3-0.1c-1.3,0-2.6,0.3-3.8,0.9l-1.4,0.7c-0.9,0.4-1.9,0.7-2.9,0.7c-2.5,0-4.7-1.4-5.9-3.5l-0.7-1.4 c-0.6-1.2-1.5-2.2-2.5-2.9c-0.5-0.4-1.1-0.7-1.7-0.9c-0.6-0.3-1.2-0.4-1.9-0.6l-1.6-0.3c-3.5-0.6-5.9-3.9-5.4-7.5l0.2-1.6 c0.4-2.6-0.5-5.2-2.3-7.2L19,39.1c-2.5-2.6-2.5-6.6,0-9.2l1.1-1.1c1.8-1.9,2.7-4.5,2.3-7.2L22.2,20c-0.5-3.6,1.9-6.9,5.4-7.5 l1.6-0.3c2.6-0.5,4.8-2.1,6.1-4.4L36,6.5c1.2-2.2,3.4-3.5,5.9-3.5c1,0,2,0.2,2.9,0.7l1.4,0.7c2.3,1.1,5.2,1.1,7.5,0l1.4-0.7 c0.9-0.4,1.9-0.7,2.9-0.7c2.5,0,4.7,1.4,5.9,3.5l0.7,1.4c1.2,2.4,3.5,4,6.1,4.4l1.6,0.3c3.5,0.6,5.9,3.9,5.4,7.5l-0.2,1.6 c-0.4,2.6,0.5,5.2,2.3,7.2l1.1,1.1c2.5,2.6,2.5,6.6,0,9.2L79.9,40.3z"></path> <path fill="#D2BA7C" d="M50,13.5c-11.6,0-21,9.4-21,21c0,11.6,9.4,21,21,21c11.6,0,21-9.4,21-21C71,22.9,61.6,13.5,50,13.5z M50,53.5c-10.5,0-19-8.5-19-19s8.5-19,19-19s19,8.5,19,19S60.5,53.5,50,53.5z"></path> <path fill="#D2BA7C" d="M59.9,27L48.1,38.8l-6.5-6.5c-0.4-0.4-1-0.4-1.4,0c-0.4,0.4-0.4,1,0,1.4l7.2,7.2c0.2,0.2,0.4,0.3,0.7,0.3 c0,0,0,0,0,0c0.3,0,0.5-0.1,0.7-0.3l12.4-12.5c0.4-0.4,0.4-1,0-1.4C60.8,26.6,60.2,26.6,59.9,27z"></path> </g> </svg> 